<svg width="38" height="38" viewBox="0 0 38 38" fill="none" xmlns="http://www.w3.org/2000/svg">
<path d="M23.75 15.8333C23.75 18.4567 21.6233 20.5833 19 20.5833C16.3766 20.5833 14.25 18.4567 14.25 15.8333C14.25 13.21 16.3766 11.0833 19 11.0833C21.6233 11.0833 23.75 13.21 23.75 15.8333Z" stroke="black" stroke-width="2.375" stroke-linecap="round" stroke-linejoin="round"/>
<path d="M19 4.75C12.8788 4.75 7.91663 9.71218 7.91663 15.8333C7.91663 18.5464 8.89145 21.0318 10.5099 22.9583L16.4239 31.2303C17.687 32.9969 20.3129 32.9969 21.576 31.2303L27.49 22.9583C29.1085 21.0318 30.0833 18.5464 30.0833 15.8333C30.0833 9.71218 25.1211 4.75 19 4.75Z" stroke="black" stroke-width="2.375" stroke-linecap="round" stroke-linejoin="round"/>
</svg>
