<svg width="38" height="38" viewBox="0 0 38 38" fill="none" xmlns="http://www.w3.org/2000/svg">
<path d="M13.1083 24.9026C18.0061 29.8004 24.5282 31.6049 29.3331 29.8387C31.4696 29.0533 31.5834 26.3629 30.1246 24.6155L28.9056 23.1554C27.904 21.9556 26.0886 21.8741 24.9834 22.9793C24.2005 23.7622 23.0136 23.9797 22.0364 23.4591C20.6701 22.7313 18.7661 21.6037 17.5866 20.4242C16.4071 19.2447 15.2795 17.3407 14.5517 15.9744C14.0311 14.9972 14.2486 13.8103 15.0316 13.0274C16.1367 11.9222 16.0552 10.1069 14.8554 9.10519L13.3953 7.88619C11.648 6.42739 8.95753 6.54122 8.17218 8.67771C6.40593 13.4826 8.21042 20.0047 13.1083 24.9026Z" stroke="black" stroke-width="2.375"/>
</svg>
