<svg width="35" height="36" viewBox="0 0 35 36" fill="none" xmlns="http://www.w3.org/2000/svg">
<path d="M5.83325 9.50735H29.1666M14.5833 24.9485V15.6838M20.4166 24.9485V15.6838M23.3333 31.125H11.6666C10.0558 31.125 8.74992 29.7423 8.74992 28.0368V11.0515C8.74992 10.1987 9.40284 9.50735 10.2083 9.50735H24.7916C25.597 9.50735 26.2499 10.1987 26.2499 11.0515V28.0368C26.2499 29.7424 24.9441 31.125 23.3333 31.125ZM14.5833 9.50735H20.4166C21.222 9.50735 21.8749 8.81603 21.8749 7.96324V6.41912C21.8749 5.56633 21.222 4.875 20.4166 4.875H14.5833C13.7778 4.875 13.1249 5.56632 13.1249 6.41912V7.96324C13.1249 8.81603 13.7778 9.50735 14.5833 9.50735Z" stroke="black" stroke-width="2.91667" stroke-linecap="round" stroke-linejoin="round"/>
</svg>
