<svg width="77" height="77" viewBox="0 0 77 77" fill="none" xmlns="http://www.w3.org/2000/svg">
<path d="M54.5416 38.5V44.9167M54.5416 44.9167V51.3333M54.5416 44.9167H48.1249M54.5416 44.9167H60.9582M38.4999 44.9167H22.4583C17.1425 44.9167 12.8333 49.2259 12.8333 54.5417V57.75C12.8333 63.0657 17.1425 67.375 22.4583 67.375H48.1249C50.9755 67.375 53.5367 66.1358 55.2991 64.1667M48.1249 22.4583C48.1249 15.3707 42.3792 9.625 35.2916 9.625C28.2039 9.625 22.4583 15.3707 22.4583 22.4583C22.4583 29.546 28.2039 35.2917 35.2916 35.2917C42.3792 35.2917 48.1249 29.546 48.1249 22.4583Z" stroke="#363538" stroke-width="4.1875" stroke-linecap="round" stroke-linejoin="round"/>
</svg>
