<svg width="94" height="94" viewBox="0 0 94 94" fill="none" xmlns="http://www.w3.org/2000/svg">
<path d="M39.1667 71.1912H21.3238C17.8855 71.1912 16.2179 66.9861 18.7216 64.6296C21.771 61.7597 23.5 57.758 23.5 53.5705V43.0833C23.5 30.1047 34.0213 19.5833 47 19.5833M39.1667 71.1912V74.4167C39.1667 78.7429 42.6738 82.25 47 82.25C51.3262 82.25 54.8333 78.7429 54.8333 74.4167V71.1912M39.1667 71.1912H54.8333M54.8333 71.1912H72.6762C76.1145 71.1912 77.7821 66.9861 75.2784 64.6296C72.229 61.7597 70.5 57.758 70.5 53.5705V43.0833C70.5 30.1046 59.9787 19.5833 47 19.5833M47 19.5833V13.7083" stroke="#363538" stroke-width="4.21875" stroke-linecap="round" stroke-linejoin="round"/>
<circle cx="69" cy="27" r="12.5" fill="#463B96" stroke="black" stroke-width="3"/>
</svg>
